<svg xmlns="http://www.w3.org/2000/svg" width="48" height="48" viewBox="0 0 48 48">
    <defs>
        <style>
            .cls-1{fill:#eaeaea}
        </style>
    </defs>
    <path id="user" d="M34 10a24 24 0 1 0 24 24 24 24 0 0 0-24-24zm0 45a20.944 20.944 0 0 1-15.562-6.9 8.582 8.582 0 0 1 4.932-4.244l5.1-1.7a2.063 2.063 0 0 0 1.41-1.957v-2.636c-2.063-2.578-4.125-6.188-4.125-10.313a8.25 8.25 0 0 1 16.5 0c0 4.125-2.063 7.735-4.125 10.313V40.2a2.063 2.063 0 0 0 1.41 1.957l5.1 1.7a8.582 8.582 0 0 1 4.922 4.243A20.944 20.944 0 0 1 34 55z" class="cls-1" transform="translate(-10 -10)"/>
</svg>
